<?xml version="1.0" encoding="utf-8"?>
<!-- Generator: Adobe Illustrator 24.2.1, SVG Export Plug-In . SVG Version: 6.00 Build 0)  -->
<svg version="1.1" xmlns="http://www.w3.org/2000/svg" xmlns:xlink="http://www.w3.org/1999/xlink" x="0px" y="0px"
	 viewBox="0 0 500 500" style="enable-background:new 0 0 500 500;" xml:space="preserve">
<style type="text/css">
	.st0{fill:#7FB9E6;}
	.st1{clip-path:url(#SVGID_2_);}
	.st2{fill:#FFFFFF;}
	.st3{opacity:0.5;fill:#7FB9E6;}
	.st4{opacity:0.3;fill:#FFFFFF;}
</style>
<g id="Layer_3">
</g>
<g id="Layer_2">
	<g>
		<g>
			<path class="st0" d="M256.24,295.89c-0.8-3.21-4.08-7.6-5.53-5.13c-1.08,1.84-1.86,3.81-2.24,5.91c-0.2,1.1,0.47,2.16,1.66,2.18
				c1.77,0.03,3.51,0.31,5.27-0.06C256.46,298.57,256.6,297.35,256.24,295.89z"/>
			<g>
				<defs>
					<path id="SVGID_1_" d="M292.72,251.21c0,23.18-18.79,41.96-41.96,41.96c-23.18,0-41.96-18.79-41.96-41.96
						c0-23.18,18.79-41.96,41.96-41.96C273.93,209.25,292.72,228.04,292.72,251.21z"/>
				</defs>
				<clipPath id="SVGID_2_">
					<use xlink:href="#SVGID_1_"  style="overflow:visible;"/>
				</clipPath>
				<g class="st1">
					<path class="st0" d="M292.72,251.21c0,23.18-18.79,41.96-41.96,41.96c-23.18,0-41.96-18.79-41.96-41.96
						c0-23.18,18.79-41.96,41.96-41.96C273.93,209.25,292.72,228.04,292.72,251.21z"/>
				</g>
				<g class="st1">
					<path class="st2" d="M192.97,250.87c17.62-0.54,34.12-8.12,48.25-18.26c14.33-10.29,26.9-23.5,36-38.64
						c3.44-5.72-5.49-10.9-8.91-5.21c-8.01,13.32-18.97,25.01-31.41,34.28c-12.69,9.46-27.85,17.01-43.93,17.51
						C186.33,240.76,186.31,251.08,192.97,250.87L192.97,250.87z"/>
				</g>
				<g class="st1">
					<path class="st2" d="M206.73,273.57c17.62-0.54,34.12-8.12,48.25-18.26c14.33-10.29,26.9-23.5,36-38.64
						c3.44-5.72-5.49-10.9-8.91-5.21c-8.01,13.32-18.97,25.01-31.41,34.28c-12.69,9.46-27.85,17.01-43.93,17.51
						C200.09,263.46,200.07,273.78,206.73,273.57L206.73,273.57z"/>
				</g>
				<g class="st1">
					<path class="st2" d="M219.11,295.58c17.62-0.54,34.12-8.12,48.25-18.27c14.33-10.29,26.9-23.5,36-38.63
						c3.44-5.72-5.49-10.9-8.91-5.21c-8.01,13.32-18.97,25-31.41,34.28c-12.69,9.46-27.85,17.01-43.93,17.51
						C212.47,285.47,212.45,295.79,219.11,295.58L219.11,295.58z"/>
				</g>
			</g>
			<path class="st3" d="M256.6,280.79c-23.18,0-41.96-18.79-41.96-41.96c0-4.27,0.64-8.4,1.83-12.28
				c-5.04,6.92-8.02,15.44-8.02,24.66c0,23.18,18.79,41.96,41.96,41.96c18.9,0,34.88-12.5,40.13-29.68
				C282.91,273.98,270.56,280.79,256.6,280.79z"/>
		</g>
		<path class="st4" d="M269.65,234.17c3.48,5.67,8.92,8.65,12.16,6.67c3.24-1.99,3.05-8.19-0.43-13.86
			c-3.48-5.67-8.92-8.65-12.16-6.67C265.99,222.3,266.18,228.51,269.65,234.17z"/>
	</g>
</g>
</svg>
