<?xml version="1.0" encoding="utf-8"?>
<!-- Generator: Adobe Illustrator 24.2.1, SVG Export Plug-In . SVG Version: 6.00 Build 0)  -->
<svg version="1.1" xmlns="http://www.w3.org/2000/svg" xmlns:xlink="http://www.w3.org/1999/xlink" x="0px" y="0px"
	 viewBox="0 0 500 500" style="enable-background:new 0 0 500 500;" xml:space="preserve">
<style type="text/css">
	.st0{fill:#7FB9E6;}
	.st1{opacity:0.5;fill:#7FB9E6;}
	.st2{opacity:0.3;fill:#FFFFFF;}
</style>
<g id="Layer_3">
</g>
<g id="Layer_2">
	<g>
		<g>
			<path class="st0" d="M255.11,294.13c-0.8-3.21-4.09-7.6-5.54-5.13c-1.08,1.84-1.86,3.81-2.24,5.91c-0.2,1.1,0.46,2.16,1.66,2.18
				c1.77,0.03,3.51,0.31,5.27-0.06C255.32,296.8,255.47,295.59,255.11,294.13z"/>
			<g>
				
					<ellipse transform="matrix(0.9303 -0.3668 0.3668 0.9303 -74.041 109.2968)" class="st0" cx="250.54" cy="249.45" rx="41.96" ry="41.96"/>
			</g>
			<path class="st1" d="M256.73,279.03c-23.17,0-41.96-18.79-41.96-41.96c0-4.27,0.64-8.4,1.83-12.28
				c-5.04,6.92-8.02,15.44-8.02,24.66c0,23.17,18.79,41.96,41.96,41.96c18.9,0,34.88-12.5,40.13-29.68
				C283.04,272.21,270.69,279.03,256.73,279.03z"/>
		</g>
		<path class="st2" d="M266,232.41c3.47,5.67,8.92,8.65,12.16,6.67c3.24-1.99,3.05-8.19-0.43-13.86c-3.47-5.67-8.92-8.65-12.16-6.67
			C262.33,220.54,262.53,226.74,266,232.41z"/>
	</g>
</g>
</svg>
