<?xml version="1.0" encoding="utf-8"?>
<!-- Generator: Adobe Illustrator 24.2.1, SVG Export Plug-In . SVG Version: 6.00 Build 0)  -->
<svg version="1.1" xmlns="http://www.w3.org/2000/svg" xmlns:xlink="http://www.w3.org/1999/xlink" x="0px" y="0px"
	 viewBox="0 0 500 500" style="enable-background:new 0 0 500 500;" xml:space="preserve">
<style type="text/css">
	.st0{fill:#7FB9E6;}
	.st1{clip-path:url(#SVGID_2_);}
	.st2{fill:#FFFFFF;}
	.st3{opacity:0.5;fill:#7FB9E6;}
	.st4{opacity:0.3;fill:#FFFFFF;}
</style>
<g id="Layer_3">
</g>
<g id="Layer_2">
	<g>
		<g>
			<path class="st0" d="M242.85,298.11c-0.11-3.31-2.39-8.29-4.33-6.19c-1.45,1.57-2.62,3.33-3.44,5.31c-0.42,1.03,0,2.21,1.16,2.48
				c1.73,0.4,3.37,1.04,5.17,1.05C242.49,300.77,242.89,299.61,242.85,298.11z"/>
			<g>
				<defs>
					<path id="SVGID_1_" d="M287.99,261.92c-4.9,22.65-27.23,37.04-49.88,32.15c-22.65-4.9-37.04-27.23-32.15-49.88
						c4.9-22.65,27.23-37.04,49.88-32.15C278.5,216.94,292.89,239.27,287.99,261.92z"/>
				</defs>
				<clipPath id="SVGID_2_">
					<use xlink:href="#SVGID_1_"  style="overflow:visible;"/>
				</clipPath>
				<g class="st1">
					<path class="st0" d="M287.99,261.92c-4.9,22.65-27.23,37.04-49.88,32.15c-22.65-4.9-37.04-27.23-32.15-49.88
						c4.9-22.65,27.23-37.04,49.88-32.15C278.5,216.94,292.89,239.27,287.99,261.92z"/>
				</g>
				<g class="st1">
					<path class="st2" d="M243.03,268.04c-1.16,5.38-6.47,8.81-11.86,7.64c-5.38-1.16-8.81-6.47-7.64-11.86
						c1.16-5.38,6.47-8.81,11.86-7.64C240.78,257.34,244.2,262.65,243.03,268.04z"/>
				</g>
				<g class="st1">
					<path class="st2" d="M222.72,238.31c-1.16,5.38-6.47,8.8-11.86,7.64c-5.38-1.16-8.81-6.47-7.64-11.86
						c1.17-5.38,6.47-8.81,11.86-7.64C220.46,227.61,223.88,232.92,222.72,238.31z"/>
				</g>
				<g class="st1">
					<path class="st2" d="M247.33,217.24c-1.16,5.38-6.47,8.81-11.86,7.64c-5.38-1.16-8.81-6.47-7.64-11.86
						c1.16-5.38,6.47-8.81,11.86-7.64C245.07,206.54,248.49,211.85,247.33,217.24z"/>
				</g>
				<g class="st1">
					<path class="st2" d="M269.9,249.56c-1.16,5.38-6.47,8.81-11.86,7.64c-5.38-1.16-8.81-6.47-7.64-11.86
						c1.16-5.38,6.47-8.81,11.86-7.64C267.64,238.87,271.07,244.18,269.9,249.56z"/>
				</g>
				<g class="st1">
					<path class="st2" d="M298.36,267.68c-1.16,5.38-6.47,8.81-11.86,7.64c-5.39-1.17-8.81-6.47-7.64-11.86
						c1.16-5.38,6.47-8.8,11.86-7.64C296.1,256.99,299.52,262.3,298.36,267.68z"/>
				</g>
				<g class="st1">
					<path class="st2" d="M272.8,293.12c-1.16,5.38-6.47,8.81-11.86,7.64c-5.38-1.16-8.8-6.47-7.64-11.86
						c1.16-5.38,6.47-8.81,11.86-7.64C270.54,282.43,273.96,287.74,272.8,293.12z"/>
				</g>
				<g class="st1">
					<path class="st2" d="M216.76,278.89c-1.17,5.38-6.47,8.81-11.86,7.64c-5.38-1.16-8.8-6.47-7.64-11.86
						c1.16-5.38,6.47-8.81,11.86-7.64C214.5,268.2,217.92,273.51,216.76,278.89z"/>
				</g>
				<g class="st1">
					<path class="st2" d="M290.13,224.38c-1.16,5.38-6.47,8.81-11.86,7.64c-5.39-1.16-8.81-6.47-7.64-11.86
						c1.16-5.38,6.47-8.81,11.86-7.64C287.87,213.68,291.29,218.99,290.13,224.38z"/>
				</g>
			</g>
			<path class="st3" d="M246.64,283.36c-22.65-4.9-37.04-27.23-32.15-49.88c0.9-4.18,2.4-8.07,4.38-11.62
				c-6.39,5.7-11.1,13.4-13.05,22.41c-4.9,22.65,9.49,44.98,32.15,49.88c18.47,3.99,36.73-4.85,45.5-20.53
				C273.8,282.26,260.28,286.31,246.64,283.36z"/>
		</g>
		<path class="st4" d="M266.07,241.15c2.2,6.28,6.89,10.34,10.47,9.09c3.59-1.26,4.71-7.36,2.51-13.64
			c-2.2-6.27-6.89-10.34-10.47-9.08C265,228.77,263.87,234.88,266.07,241.15z"/>
	</g>
</g>
</svg>
