<?xml version="1.0" encoding="utf-8"?>
<!-- Generator: Adobe Illustrator 24.2.1, SVG Export Plug-In . SVG Version: 6.00 Build 0)  -->
<svg version="1.1" xmlns="http://www.w3.org/2000/svg" xmlns:xlink="http://www.w3.org/1999/xlink" x="0px" y="0px"
	 viewBox="0 0 500 500" style="enable-background:new 0 0 500 500;" xml:space="preserve">
<style type="text/css">
	.st0{fill:#7FB9E6;}
	.st1{clip-path:url(#SVGID_2_);}
	.st2{fill:#FFFFFF;}
	.st3{opacity:0.5;fill:#7FB9E6;}
	.st4{opacity:0.3;fill:#FFFFFF;}
</style>
<g id="Layer_3">
</g>
<g id="Layer_2">
	<g>
		<g>
			<path class="st0" d="M253.27,294.18c-0.8-3.21-4.09-7.6-5.54-5.13c-1.08,1.84-1.86,3.81-2.24,5.91c-0.2,1.1,0.46,2.16,1.66,2.18
				c1.77,0.03,3.51,0.31,5.27-0.06C253.49,296.85,253.63,295.64,253.27,294.18z"/>
			<g>
				<defs>
					<path id="SVGID_1_" d="M289.34,248.92c0,23.18-18.79,41.96-41.96,41.96c-23.17,0-41.96-18.79-41.96-41.96
						c0-23.17,18.79-41.96,41.96-41.96C270.56,206.96,289.34,225.75,289.34,248.92z"/>
				</defs>
				<clipPath id="SVGID_2_">
					<use xlink:href="#SVGID_1_"  style="overflow:visible;"/>
				</clipPath>
				<g class="st1">
					<path class="st0" d="M289.34,248.92c0,23.18-18.79,41.96-41.96,41.96c-23.17,0-41.96-18.79-41.96-41.96
						c0-23.17,18.79-41.96,41.96-41.96C270.56,206.96,289.34,225.75,289.34,248.92z"/>
				</g>
				<g class="st1">
					<path class="st2" d="M221.77,203.53c-3.88,10.92-5.94,25.12,1.65,34.87c3.91,5.02,11.05,4.63,16.72,4.87
						c2.32,0.1,4.28,0.53,5.91,2.25c1.15,1.21-0.76,6.4-1.01,7.96c-1.04,6.57,1.29,13.99,6.84,17.96c4.34,3.11,9.98,2.94,14.53,5.53
						c4.38,2.5,5.41,7.72,6.35,12.24c1.01,4.86,2.25,9.24,6.42,12.31c2.27,1.67,5.75,0.38,7.06-1.85c1.53-2.62,0.41-5.4-1.85-7.06
						c0.31,0.23,0.04-0.09-0.14-0.4c-0.26-0.44-0.4-0.95-0.68-1.94c-0.61-2.14-0.95-4.36-1.45-6.53
						c-1.23-5.32-3.67-10.41-7.99-13.88c-4.64-3.73-10.1-4.35-15.49-6.33c-4.49-1.65-3.5-8.3-2.73-12.04
						c1.41-6.79-0.06-12.42-6.22-16.22c-4.97-3.06-10.73-1.72-16.13-2.66c-4.77-0.83-4.9-7.28-4.86-11.1
						c0.05-5.18,1.3-10.39,3.03-15.25C233.95,199.98,223.98,197.3,221.77,203.53L221.77,203.53z"/>
				</g>
				<g class="st1">
					<path class="st2" d="M197.69,219.35c-3.88,10.92-5.94,25.12,1.65,34.87c3.91,5.02,11.05,4.63,16.72,4.87
						c2.32,0.1,4.28,0.53,5.9,2.25c1.15,1.21-0.76,6.4-1.01,7.96c-1.04,6.57,1.29,13.99,6.84,17.96c4.35,3.11,9.98,2.94,14.53,5.53
						c4.38,2.5,5.41,7.72,6.35,12.25c1.01,4.86,2.25,9.24,6.42,12.31c2.27,1.67,5.75,0.38,7.06-1.85c1.53-2.62,0.41-5.4-1.85-7.06
						c0.31,0.23,0.05-0.09-0.14-0.4c-0.26-0.44-0.4-0.95-0.68-1.94c-0.61-2.14-0.95-4.36-1.45-6.52
						c-1.23-5.32-3.67-10.41-7.99-13.88c-4.64-3.73-10.1-4.35-15.49-6.33c-4.49-1.65-3.5-8.3-2.73-12.04
						c1.41-6.79-0.06-12.42-6.22-16.22c-4.97-3.06-10.73-1.72-16.13-2.66c-4.77-0.83-4.9-7.28-4.86-11.1
						c0.05-5.18,1.3-10.39,3.03-15.25C209.88,215.81,199.91,213.12,197.69,219.35L197.69,219.35z"/>
				</g>
				<g class="st1">
					<path class="st2" d="M243.78,181.51c-3.88,10.92-5.94,25.12,1.65,34.87c3.91,5.02,11.05,4.63,16.72,4.87
						c2.32,0.1,4.28,0.53,5.91,2.25c1.15,1.21-0.76,6.4-1.01,7.96c-1.04,6.57,1.29,13.99,6.84,17.96c4.35,3.11,9.98,2.94,14.53,5.53
						c4.38,2.5,5.41,7.72,6.35,12.24c1.01,4.86,2.25,9.24,6.42,12.31c2.27,1.67,5.75,0.38,7.06-1.85c1.53-2.62,0.41-5.4-1.85-7.06
						c0.31,0.23,0.04-0.09-0.14-0.4c-0.26-0.44-0.4-0.95-0.68-1.94c-0.61-2.14-0.95-4.36-1.45-6.52
						c-1.23-5.32-3.67-10.41-7.99-13.88c-4.64-3.73-10.1-4.35-15.49-6.33c-4.49-1.65-3.5-8.3-2.73-12.04
						c1.41-6.79-0.06-12.42-6.22-16.22c-4.97-3.06-10.73-1.72-16.13-2.66c-4.77-0.83-4.9-7.28-4.86-11.1
						c0.05-5.18,1.3-10.39,3.03-15.25C255.97,177.97,246,175.29,243.78,181.51L243.78,181.51z"/>
				</g>
			</g>
			<path class="st3" d="M253.57,278.39c-23.17,0-41.96-18.79-41.96-41.96c0-4.27,0.64-8.4,1.83-12.28
				c-5.04,6.92-8.02,15.44-8.02,24.66c0,23.17,18.79,41.96,41.96,41.96c18.9,0,34.88-12.5,40.13-29.68
				C279.88,271.57,267.53,278.39,253.57,278.39z"/>
		</g>
		<path class="st4" d="M260.09,234.63c3.48,5.67,8.92,8.65,12.16,6.67c3.24-1.99,3.05-8.19-0.43-13.86
			c-3.48-5.67-8.92-8.65-12.16-6.67C256.42,222.76,256.62,228.97,260.09,234.63z"/>
	</g>
</g>
</svg>
