<?xml version="1.0" encoding="utf-8"?>
<!-- Generator: Adobe Illustrator 24.2.1, SVG Export Plug-In . SVG Version: 6.00 Build 0)  -->
<svg version="1.1" xmlns="http://www.w3.org/2000/svg" xmlns:xlink="http://www.w3.org/1999/xlink" x="0px" y="0px"
	 viewBox="0 0 500 500" style="enable-background:new 0 0 500 500;" xml:space="preserve">
<style type="text/css">
	.st0{fill:#F4A9B6;}
	.st1{clip-path:url(#SVGID_2_);}
	.st2{fill:#FFFFFF;}
	.st3{opacity:0.5;fill:#F4A9B6;}
	.st4{opacity:0.3;fill:#FFFFFF;}
</style>
<g id="Layer_3">
</g>
<g id="Layer_2">
	<g>
		<g>
			<path class="st0" d="M255.65,296.16c-0.8-3.21-4.09-7.6-5.53-5.13c-1.08,1.84-1.86,3.81-2.24,5.91c-0.2,1.1,0.47,2.16,1.66,2.18
				c1.77,0.03,3.51,0.31,5.27-0.06C255.87,298.83,256.02,297.62,255.65,296.16z"/>
			<g>
				<defs>
					
						<ellipse id="SVGID_1_" transform="matrix(1 -5.179918e-03 5.179918e-03 1 -1.2993 1.2992)" cx="250.17" cy="251.48" rx="41.96" ry="41.96"/>
				</defs>
				<clipPath id="SVGID_2_">
					<use xlink:href="#SVGID_1_"  style="overflow:visible;"/>
				</clipPath>
				<g class="st1">
					
						<ellipse transform="matrix(1 -5.179918e-03 5.179918e-03 1 -1.2993 1.2992)" class="st0" cx="250.17" cy="251.48" rx="41.96" ry="41.96"/>
				</g>
				<g class="st1">
					<path class="st2" d="M192.39,251.14c17.62-0.54,34.12-8.12,48.25-18.26c14.33-10.29,26.9-23.5,36-38.64
						c3.44-5.72-5.49-10.9-8.91-5.21c-8.01,13.32-18.97,25.01-31.41,34.28c-12.69,9.46-27.85,17.01-43.93,17.51
						C185.75,241.02,185.73,251.34,192.39,251.14L192.39,251.14z"/>
				</g>
				<g class="st1">
					<path class="st2" d="M206.15,273.84c17.62-0.54,34.12-8.12,48.25-18.26c14.33-10.29,26.9-23.5,36-38.64
						c3.44-5.72-5.49-10.9-8.91-5.21c-8.01,13.32-18.97,25.01-31.41,34.28c-12.69,9.46-27.85,17.01-43.93,17.51
						C199.51,263.72,199.49,274.04,206.15,273.84L206.15,273.84z"/>
				</g>
				<g class="st1">
					<path class="st2" d="M218.53,295.85c17.62-0.54,34.12-8.12,48.25-18.27c14.33-10.29,26.9-23.5,36-38.63
						c3.44-5.72-5.49-10.9-8.91-5.21c-8.01,13.32-18.97,25-31.41,34.28c-12.69,9.46-27.85,17.01-43.93,17.51
						C211.89,285.74,211.87,296.05,218.53,295.85L218.53,295.85z"/>
				</g>
			</g>
			<path class="st3" d="M256.02,281.06c-23.18,0-41.96-18.79-41.96-41.96c0-4.27,0.64-8.4,1.83-12.28
				c-5.04,6.92-8.02,15.44-8.02,24.66c0,23.18,18.79,41.96,41.96,41.96c18.9,0,34.88-12.5,40.13-29.68
				C282.33,274.24,269.97,281.06,256.02,281.06z"/>
		</g>
		<path class="st4" d="M269.07,234.44c3.48,5.67,8.92,8.65,12.16,6.67c3.24-1.99,3.05-8.19-0.43-13.86
			c-3.48-5.67-8.92-8.65-12.16-6.67C265.4,222.57,265.6,228.77,269.07,234.44z"/>
	</g>
</g>
</svg>
