<?xml version="1.0" encoding="utf-8"?>
<!-- Generator: Adobe Illustrator 24.2.1, SVG Export Plug-In . SVG Version: 6.00 Build 0)  -->
<svg version="1.1" xmlns="http://www.w3.org/2000/svg" xmlns:xlink="http://www.w3.org/1999/xlink" x="0px" y="0px"
	 viewBox="0 0 500 500" style="enable-background:new 0 0 500 500;" xml:space="preserve">
<style type="text/css">
	.st0{fill:#F4A9B6;}
	.st1{clip-path:url(#SVGID_2_);}
	.st2{fill:#FFFFFF;}
	.st3{opacity:0.5;fill:#F4A9B6;}
	.st4{opacity:0.3;fill:#FFFFFF;}
</style>
<g id="Layer_3">
</g>
<g id="Layer_2">
	<g>
		<g>
			<path class="st0" d="M246.28,294.76c-0.11-3.31-2.39-8.29-4.33-6.19c-1.45,1.57-2.62,3.33-3.44,5.31c-0.42,1.03,0,2.21,1.16,2.48
				c1.73,0.4,3.37,1.04,5.17,1.05C245.93,297.41,246.33,296.26,246.28,294.76z"/>
			<g>
				<defs>
					<path id="SVGID_1_" d="M291.42,258.57c-4.9,22.65-27.23,37.04-49.88,32.15c-22.65-4.9-37.04-27.23-32.15-49.88
						c4.9-22.65,27.23-37.04,49.88-32.15C281.93,213.58,296.32,235.92,291.42,258.57z"/>
				</defs>
				<clipPath id="SVGID_2_">
					<use xlink:href="#SVGID_1_"  style="overflow:visible;"/>
				</clipPath>
				<g class="st1">
					<path class="st0" d="M291.42,258.57c-4.9,22.65-27.23,37.04-49.88,32.15c-22.65-4.9-37.04-27.23-32.15-49.88
						c4.9-22.65,27.23-37.04,49.88-32.15C281.93,213.58,296.32,235.92,291.42,258.57z"/>
				</g>
				<g class="st1">
					<path class="st2" d="M246.47,264.68c-1.16,5.38-6.47,8.81-11.86,7.64c-5.38-1.16-8.81-6.47-7.64-11.86
						c1.16-5.38,6.47-8.81,11.86-7.64C244.21,253.99,247.63,259.3,246.47,264.68z"/>
				</g>
				<g class="st1">
					<path class="st2" d="M226.15,234.96c-1.16,5.38-6.47,8.8-11.86,7.64c-5.38-1.16-8.81-6.47-7.64-11.86
						c1.17-5.38,6.47-8.81,11.86-7.64C223.89,224.26,227.31,229.57,226.15,234.96z"/>
				</g>
				<g class="st1">
					<path class="st2" d="M250.76,213.89c-1.16,5.38-6.47,8.81-11.86,7.64c-5.38-1.16-8.81-6.47-7.64-11.86
						c1.16-5.38,6.47-8.81,11.86-7.64C248.5,203.19,251.93,208.5,250.76,213.89z"/>
				</g>
				<g class="st1">
					<path class="st2" d="M273.33,246.21c-1.16,5.38-6.47,8.81-11.86,7.64c-5.38-1.16-8.81-6.47-7.64-11.86
						c1.16-5.38,6.47-8.81,11.86-7.64C271.08,235.52,274.5,240.83,273.33,246.21z"/>
				</g>
				<g class="st1">
					<path class="st2" d="M301.79,264.33c-1.16,5.38-6.47,8.81-11.86,7.64c-5.39-1.16-8.81-6.47-7.64-11.86
						c1.16-5.38,6.47-8.8,11.86-7.64C299.53,253.64,302.95,258.95,301.79,264.33z"/>
				</g>
				<g class="st1">
					<path class="st2" d="M276.23,289.77c-1.16,5.38-6.47,8.81-11.86,7.64c-5.38-1.16-8.81-6.47-7.64-11.86
						c1.16-5.38,6.47-8.81,11.86-7.64C273.98,279.08,277.4,284.39,276.23,289.77z"/>
				</g>
				<g class="st1">
					<path class="st2" d="M220.19,275.54c-1.16,5.38-6.47,8.81-11.86,7.64c-5.38-1.16-8.81-6.47-7.64-11.86
						c1.16-5.38,6.47-8.81,11.86-7.64C217.93,264.85,221.35,270.16,220.19,275.54z"/>
				</g>
				<g class="st1">
					<path class="st2" d="M293.56,221.03c-1.16,5.38-6.47,8.81-11.86,7.64c-5.39-1.16-8.81-6.47-7.64-11.86
						c1.16-5.38,6.47-8.81,11.86-7.64C291.3,210.33,294.72,215.64,293.56,221.03z"/>
				</g>
			</g>
			<path class="st3" d="M250.07,280.01c-22.65-4.9-37.04-27.23-32.15-49.88c0.9-4.18,2.4-8.07,4.38-11.62
				c-6.39,5.7-11.1,13.4-13.05,22.41c-4.9,22.65,9.5,44.98,32.15,49.88c18.47,3.99,36.73-4.85,45.5-20.53
				C277.23,278.91,263.71,282.96,250.07,280.01z"/>
		</g>
		<path class="st4" d="M269.5,237.8c2.2,6.28,6.89,10.34,10.47,9.09c3.59-1.26,4.71-7.36,2.51-13.64
			c-2.2-6.27-6.89-10.34-10.47-9.08C268.43,225.42,267.3,231.53,269.5,237.8z"/>
	</g>
</g>
</svg>
