<?xml version="1.0" encoding="utf-8"?>
<!-- Generator: Adobe Illustrator 24.2.1, SVG Export Plug-In . SVG Version: 6.00 Build 0)  -->
<svg version="1.1" xmlns="http://www.w3.org/2000/svg" xmlns:xlink="http://www.w3.org/1999/xlink" x="0px" y="0px"
	 viewBox="0 0 500 500" style="enable-background:new 0 0 500 500;" xml:space="preserve">
<style type="text/css">
	.st0{fill:#F4A9B6;}
	.st4{fill:#ff99aa;}
	.st1{opacity:0.5;fill:#F4A9B6;}
	.st2{opacity:0.3;fill:#FFFFFF;}
	.st3{
		stroke: #F4A9B6;
	}
</style>
<g id="Layer_3">
</g>
<g id="Layer_2">
	<g>
		<g>
			<path class="st0" d="M255.13,295.73c-0.8-3.21-4.09-7.6-5.53-5.13c-1.08,1.84-1.86,3.81-2.24,5.91c-0.2,1.1,0.46,2.16,1.66,2.18
				c1.77,0.03,3.51,0.31,5.27-0.06C255.35,298.4,255.49,297.19,255.13,295.73z"/>
			<g>
				
					<ellipse transform="matrix(0.8272 -0.562 0.562 0.8272 -97.7725 184.1972)" class="st0" cx="258" cy="245" rx="75" ry="75"/>
			</g>
			<path class="st1" d="M256.75,280.63c-23.17,0-41.96-18.79-41.96-41.96c0-4.27,0.64-8.4,1.83-12.28
				c-5.04,6.92-8.02,15.44-8.02,24.66c0,23.17,18.79,41.96,41.96,41.96c18.9,0,34.88-12.5,40.13-29.68
				C283.06,273.81,270.71,280.63,256.75,280.63z"/>
		</g>
		<path class="st2" d="M266.02,234.01c3.47,5.67,8.92,8.65,12.16,6.67c3.24-1.99,3.05-8.19-0.43-13.86
			c-3.47-5.67-8.92-8.65-12.16-6.67C262.35,222.13,262.55,228.34,266.02,234.01z"/>
			 <g class="balloon__tail" style="transform:translate(75px,-40px);opacity:1">
                    <path class="st0" d="m 188.22808,349.25088 c 0,0 6.93415,19.41771 5.52302,21.82905 -2.42552,4.14475 -29.89939,4.50087 -32.75777,0 -1.84348,-2.90278 5.77555,-21.70278 5.77555,-21.70278 z"></path>
                    <path class="st4" d="m 164.62762,354.98274 c 0,0 3.71409,2.91278 13.18428,2.91278 9.2211,0 12.40237,-2.75719 12.40237,-2.75719 l -2.02888,-6.12908 -21.33948,0.0631 z"></path>
                    <path fill="none" class="st3" stroke-width="6" stroke-linecap="round" d="m 176.86017,373.73455 c 0,0 1e-5,26.14502 2.02569,82.52025 2.02569,56.37522 10.45301,73.52832 10.12844,138.89548 -0.41785,84.15131 -13.16697,136.44438 -12.15412,201.80696"></path>
                    <path fill="none" class="st3" stroke-width="6" stroke-linecap="butt"  d="m 176.9082,374.23056 0,7.8208"></path>
                    <path class="balloon__broken-piece1 st0" style="transform:rotate(0deg);transform-origin:0 0"  d="m 177.05357,350.80354 c 0,0 14.73214,-0.80357 26.42857,-4.55357 11.69643,-3.75 21.25,-8.57143 21.25,-8.57143 -6.53196,-0.37837 -10.72197,-2.30908 -11.16071,-9.55357 -2.65213,2.14357 -5.06586,1.82981 -6.96429,-1.33929 -6.79333,3.02976 -12.65394,3.1328 -16.16071,-5.98214 -9.03699,8.01487 -24.32056,13.0975 -37.71664,2.63261 -0.54175,7.61121 -5.60222,9.83543 -12.0805,7.99688 0.65151,5.56406 -3.45742,8.37219 -10.11358,7.04908 0,0 9.39573,4.50151 21.16892,7.95278 13.68172,4.01073 25.34894,4.36865 25.34894,4.36865 z"></path>
                  </g>
	</g>
</g>
</svg>
