<?xml version="1.0" encoding="utf-8"?>
<!-- Generator: Adobe Illustrator 24.2.1, SVG Export Plug-In . SVG Version: 6.00 Build 0)  -->
<svg version="1.1" xmlns="http://www.w3.org/2000/svg" xmlns:xlink="http://www.w3.org/1999/xlink" x="0px" y="0px"
	 viewBox="0 0 500 500" style="enable-background:new 0 0 500 500;" xml:space="preserve">
<style type="text/css">
	.st0{fill:#F296A5;}
	.st1{opacity:0.5;fill:#F296A5;}
	.st2{opacity:0.3;fill:#FFFFFF;}
</style>
<g id="Layer_3">
</g>
<g id="Layer_2">
	<g>
		<g>
			<path class="st0" d="M253.89,292.66c-0.8-3.21-4.09-7.6-5.54-5.13c-1.08,1.84-1.86,3.81-2.24,5.91c-0.2,1.1,0.47,2.16,1.66,2.18
				c1.77,0.03,3.51,0.31,5.27-0.06C254.1,295.33,254.25,294.12,253.89,292.66z"/>
			<g>
				
					<ellipse transform="matrix(0.7071 -0.7071 0.7071 0.7071 -102.3237 248.9272)" class="st0" cx="249.32" cy="247.98" rx="41.96" ry="41.96"/>
			</g>
			<path class="st1" d="M255.51,277.56c-23.17,0-41.96-18.79-41.96-41.96c0-4.27,0.64-8.4,1.83-12.28
				c-5.04,6.92-8.02,15.44-8.02,24.66c0,23.17,18.79,41.96,41.96,41.96c18.9,0,34.88-12.5,40.13-29.68
				C281.82,270.74,269.47,277.56,255.51,277.56z"/>
		</g>
		<path class="st2" d="M264.78,230.94c3.48,5.67,8.92,8.65,12.16,6.67c3.24-1.99,3.05-8.19-0.43-13.86
			c-3.47-5.67-8.92-8.65-12.16-6.67C261.11,219.07,261.31,225.27,264.78,230.94z"/>
	</g>
</g>
</svg>
